<svg viewBox="0 0 30 20" focusable="false" style="pointer-events: none; display: block; width: 100%; height: 100%;">
          <g>
            <path
              d="M27.9727 3.12324C27.6435 1.89323 26.6768 0.926623 25.4468 0.597366C23.2197 2.24288e-07 14.285 0 14.285 0C14.285 0 5.35042 2.24288e-07 3.12323 0.597366C1.89323 0.926623 0.926623 1.89323 0.597366 3.12324C2.24288e-07 5.35042 0 10 0 10C0 10 2.24288e-07 14.6496 0.597366 16.8768C0.926623 18.1068 1.89323 19.0734 3.12323 19.4026C5.35042 20 14.285 20 14.285 20C14.285 20 23.2197 20 25.4468 19.4026C26.6768 19.0734 27.6435 18.1068 27.9727 16.8768C28.5701 14.6496 28.5701 10 28.5701 10C28.5701 10 28.5677 5.35042 27.9727 3.12324Z"
              fill="#eb7734"></path>
            <path
              d="M 14.46 1.8068 L 18.6 6.2 L 19.8 12.2 A 1.2 1.2 90 0 1 17.4 13.4 A 1.2 1.2 90 0 1 18.6 12.2 L 17.4 8.6 L 12.6 9.8 L 13.8 15.8 A 1.2 1.2 90 0 1 11.4 17 A 1.2 1.2 90 0 1 12.6 15.8 L 10.2 9.8 A 1.2 1.2 90 0 1 9 8.6 A 1.2 1.2 90 0 1 10.2 7.4 A 1.2 1.2 90 0 0 11.4 3.8 L 13.9824 4.1372"
              fill="white"></path>
          </g>
        </svg>